<svg width="18" height="19" viewBox="0 0 18 19" fill="none" xmlns="http://www.w3.org/2000/svg">
<path d="M15 5H13C13 3.93913 12.5786 2.92172 11.8284 2.17157C11.0783 1.42143 10.0609 1 9 1C7.93913 1 6.92172 1.42143 6.17157 2.17157C5.42143 2.92172 5 3.93913 5 5H3C2.46957 5 1.96086 5.21071 1.58579 5.58579C1.21071 5.96086 1 6.46957 1 7L1 13.6667C1.00106 14.5504 1.35259 15.3976 1.97748 16.0225C2.60237 16.6474 3.4496 16.9989 4.33333 17H12.124C11.6605 16.6987 11.2645 16.3047 10.961 15.8427C10.6575 15.3807 10.453 14.8609 10.3604 14.3159C10.2679 13.7709 10.2893 13.2127 10.4233 12.6764C10.5574 12.1401 10.8011 11.6375 11.1391 11.2001C11.4772 10.7627 11.9022 10.4002 12.3874 10.1353C12.8725 9.87047 13.4074 9.70904 13.9581 9.66124C14.5088 9.61343 15.0634 9.68028 15.587 9.85758C16.1105 10.0349 16.5917 10.3188 17 10.6913V7C17 6.46957 16.7893 5.96086 16.4142 5.58579C16.0391 5.21071 15.5304 5 15 5ZM6.33333 5C6.33333 4.29276 6.61428 3.61448 7.11438 3.11438C7.61448 2.61428 8.29276 2.33333 9 2.33333C9.70724 2.33333 10.3855 2.61428 10.8856 3.11438C11.3857 3.61448 11.6667 4.29276 11.6667 5H6.33333Z" fill="url(#paint0_linear_1_38)"/>
<path d="M16.3346 13H15.0013V11.6667C15.0013 11.4899 14.9311 11.3203 14.806 11.1953C14.681 11.0702 14.5114 11 14.3346 11C14.1578 11 13.9883 11.0702 13.8632 11.1953C13.7382 11.3203 13.668 11.4899 13.668 11.6667V13H12.3346C12.1578 13 11.9883 13.0702 11.8632 13.1953C11.7382 13.3203 11.668 13.4899 11.668 13.6667C11.668 13.8435 11.7382 14.013 11.8632 14.1381C11.9883 14.2631 12.1578 14.3333 12.3346 14.3333H13.668V15.6667C13.668 15.8435 13.7382 16.013 13.8632 16.1381C13.9883 16.2631 14.1578 16.3333 14.3346 16.3333C14.5114 16.3333 14.681 16.2631 14.806 16.1381C14.9311 16.013 15.0013 15.8435 15.0013 15.6667V14.3333H16.3346C16.5114 14.3333 16.681 14.2631 16.806 14.1381C16.9311 14.013 17.0013 13.8435 17.0013 13.6667C17.0013 13.4899 16.9311 13.3203 16.806 13.1953C16.681 13.0702 16.5114 13 16.3346 13Z" fill="#1F2937"/>
<defs>
<linearGradient id="paint0_linear_1_38" x1="1" y1="9" x2="17" y2="9" gradientUnits="userSpaceOnUse">
<stop stop-color="#00A0AF"/>
<stop offset="1" stop-color="#00555D"/>
</linearGradient>
</defs>
</svg>
