<svg width="18" height="22" viewBox="0 0 18 22" fill="none" xmlns="http://www.w3.org/2000/svg">
<g clip-path="url(#clip0_1_28)">
<path d="M11.1672 6.25021V0.127888C12.0332 0.454913 12.8198 0.962276 13.4748 1.61634L16.7363 4.87971C17.3911 5.53396 17.8988 6.32032 18.2257 7.18635H12.1033C11.8551 7.18635 11.617 7.08772 11.4414 6.91216C11.2658 6.7366 11.1672 6.49849 11.1672 6.25021ZM18.6563 9.51264V17.4838C18.6548 18.7248 18.1612 19.9145 17.2837 20.7919C16.4062 21.6694 15.2166 22.163 13.9756 22.1645H4.61427C3.37333 22.163 2.18365 21.6694 1.30617 20.7919C0.428699 19.9145 -0.0649198 18.7248 -0.0664062 17.4838V4.37794C-0.0649198 3.137 0.428699 1.94732 1.30617 1.06985C2.18365 0.192371 3.37333 -0.301248 4.61427 -0.302734L8.84092 -0.302734C8.99351 -0.302734 9.14422 -0.290565 9.29494 -0.280267V6.25021C9.29494 6.99505 9.59083 7.70938 10.1175 8.23605C10.6442 8.76273 11.3585 9.05862 12.1033 9.05862H18.6338C18.6441 9.20933 18.6563 9.36005 18.6563 9.51264ZM11.1672 17.4838C11.1672 17.2356 11.0686 16.9974 10.893 16.8219C10.7175 16.6463 10.4794 16.5477 10.2311 16.5477H5.5504C5.30212 16.5477 5.06401 16.6463 4.88846 16.8219C4.7129 16.9974 4.61427 17.2356 4.61427 17.4838C4.61427 17.7321 4.7129 17.9702 4.88846 18.1458C5.06401 18.3213 5.30212 18.42 5.5504 18.42H10.2311C10.4794 18.42 10.7175 18.3213 10.893 18.1458C11.0686 17.9702 11.1672 17.7321 11.1672 17.4838ZM13.9756 13.7393C13.9756 13.491 13.877 13.2529 13.7014 13.0773C13.5259 12.9018 13.2878 12.8032 13.0395 12.8032H5.5504C5.30212 12.8032 5.06401 12.9018 4.88846 13.0773C4.7129 13.2529 4.61427 13.491 4.61427 13.7393C4.61427 13.9876 4.7129 14.2257 4.88846 14.4012C5.06401 14.5768 5.30212 14.6754 5.5504 14.6754H13.0395C13.2878 14.6754 13.5259 14.5768 13.7014 14.4012C13.877 14.2257 13.9756 13.9876 13.9756 13.7393Z" fill="#00555D"/>
</g>
<defs>
<clipPath id="clip0_1_28">
<rect width="18" height="22" fill="white"/>
</clipPath>
</defs>
</svg>
