<svg width="20" height="22" viewBox="0 0 20 22" fill="none" xmlns="http://www.w3.org/2000/svg">
<g clip-path="url(#clip0_1_22)">
<path d="M19.8601 6.15625L12.8451 12.4698C12.0629 13.1719 11.0032 13.5663 9.89844 13.5663C8.79365 13.5663 7.73396 13.1719 6.95177 12.4698L-0.0632292 6.15625C-0.0748958 6.27475 -0.101562 6.382 -0.101562 6.49975V15.4998C-0.100239 16.4939 0.339172 17.4471 1.12029 18.1501C1.9014 18.8531 2.96044 19.2486 4.0651 19.2498H15.7318C16.8364 19.2486 17.8955 18.8531 18.6766 18.1501C19.4577 17.4471 19.8971 16.4939 19.8984 15.4998V6.49975C19.8984 6.382 19.8718 6.27475 19.8601 6.15625Z" fill="url(#paint0_linear_1_22)"/>
<path d="M11.6659 11.4095L19.2776 4.55825C18.9088 4.00799 18.3888 3.55253 17.7676 3.2358C17.1463 2.91907 16.4449 2.75176 15.7309 2.75H4.06424C3.35026 2.75176 2.64883 2.91907 2.0276 3.2358C1.40637 3.55253 0.88631 4.00799 0.517578 4.55825L8.12924 11.4095C8.59889 11.8305 9.23473 12.0669 9.89758 12.0669C10.5604 12.0669 11.1963 11.8305 11.6659 11.4095Z" fill="url(#paint1_linear_1_22)"/>
</g>
<defs>
<linearGradient id="paint0_linear_1_22" x1="-0.101562" y1="12.703" x2="19.8984" y2="12.703" gradientUnits="userSpaceOnUse">
<stop stop-color="#00A0AF"/>
<stop offset="1" stop-color="#00555D"/>
</linearGradient>
<linearGradient id="paint1_linear_1_22" x1="0.517578" y1="7.40843" x2="19.2776" y2="7.40843" gradientUnits="userSpaceOnUse">
<stop stop-color="#00A0AF"/>
<stop offset="1" stop-color="#00555D"/>
</linearGradient>
<clipPath id="clip0_1_22">
<rect width="20" height="22" fill="white"/>
</clipPath>
</defs>
</svg>
