<svg width="18" height="19" viewBox="0 0 18 19" fill="none" xmlns="http://www.w3.org/2000/svg">
<path d="M3.67441 0.999969H5.67437C7.14709 0.999969 8.34097 2.19385 8.34097 3.66657V5.66653C8.34097 7.13925 7.14709 8.33313 5.67437 8.33313H3.67441C2.20169 8.33313 1.00781 7.13925 1.00781 5.66653V3.66657C1.00781 2.19385 2.20169 0.999969 3.67441 0.999969Z" fill="url(#paint0_linear_1_44)"/>
<path d="M3.67441 9.66644H5.67437C7.14709 9.66644 8.34097 10.8603 8.34097 12.333V14.333C8.34097 15.8057 7.14709 16.9996 5.67437 16.9996H3.67441C2.20169 16.9996 1.00781 15.8057 1.00781 14.333V12.333C1.00781 10.8603 2.20169 9.66644 3.67441 9.66644Z" fill="url(#paint1_linear_1_44)"/>
<path d="M15.8688 13.7504L14.3401 15.277V2.72258L15.8688 4.24921C16.1293 4.50951 16.5514 4.50936 16.8117 4.24886C17.0721 3.98837 17.0719 3.56619 16.8114 3.30588L15.0868 1.58392C14.306 0.804059 13.041 0.804059 12.2602 1.58392L10.5356 3.30588C10.2751 3.56619 10.2749 3.98837 10.5352 4.24886C10.7955 4.50936 11.2177 4.50951 11.4782 4.24921L13.0068 2.72258V15.277L11.4782 13.7504C11.2175 13.49 10.7952 13.4904 10.5349 13.751C10.2746 14.0117 10.2749 14.434 10.5355 14.6943L12.2602 16.4163C13.0419 17.194 14.305 17.194 15.0868 16.4163L16.8114 14.6943C17.0721 14.434 17.0723 14.0117 16.812 13.751C16.5518 13.4904 16.1294 13.49 15.8688 13.7504Z" fill="url(#paint2_linear_1_44)"/>
<defs>
<linearGradient id="paint0_linear_1_44" x1="1.00781" y1="4.66655" x2="8.34097" y2="4.66655" gradientUnits="userSpaceOnUse">
<stop stop-color="#00A0AF"/>
<stop offset="1" stop-color="#00555D"/>
</linearGradient>
<linearGradient id="paint1_linear_1_44" x1="1.00781" y1="13.333" x2="8.34097" y2="13.333" gradientUnits="userSpaceOnUse">
<stop stop-color="#00A0AF"/>
<stop offset="1" stop-color="#00555D"/>
</linearGradient>
<linearGradient id="paint2_linear_1_44" x1="10.3398" y1="8.99929" x2="17.0071" y2="8.99929" gradientUnits="userSpaceOnUse">
<stop stop-color="#00A0AF"/>
<stop offset="1" stop-color="#00555D"/>
</linearGradient>
</defs>
</svg>
