<svg width="18" height="19" viewBox="0 0 18 19" fill="none" xmlns="http://www.w3.org/2000/svg">
<path d="M12.8151 5.96185L13.391 6.53776L11.9772 7.95223L11.4013 7.37631C10.4888 6.46444 9.00364 6.46377 8.0911 7.37631L4.08834 11.3784C3.1758 12.2909 3.1758 13.7761 4.08834 14.6886C4.88489 15.4852 6.11605 15.6071 7.02326 15.0146C7.6725 15.2679 8.37106 15.4012 9.08963 15.4012H9.09096C9.24627 15.4012 9.40092 15.3945 9.55356 15.3825L8.81233 16.1237C7.96579 16.9703 6.85461 17.3936 5.74277 17.3936C4.63159 17.3936 3.58508 17.0089 2.62055 16.0437C0.984779 14.3473 1.00078 11.6377 2.67387 9.96461L6.67664 5.96251C7.52318 5.11597 8.63436 4.69336 9.74554 4.69336C10.8567 4.69336 11.9686 5.11663 12.8144 5.96251L12.8151 5.96185ZM16.192 2.74763C15.1728 1.72845 14.1796 1.39716 13.0684 1.39783C11.9572 1.39783 10.846 1.8211 10.0008 2.66698L9.2596 3.40821C9.41292 3.39621 9.56689 3.38954 9.72221 3.38954H9.72354C10.4421 3.38954 11.1407 3.52219 11.7899 3.77616C12.6964 3.18357 13.9283 3.30622 14.7248 4.10278C15.6374 5.01531 15.6374 6.50044 14.7248 7.41297L10.7221 11.4151C9.80953 12.3276 8.3244 12.3276 7.41187 11.4151L6.83595 10.8392L5.42215 12.2536L5.99807 12.8295C7.68983 14.5213 10.4434 14.522 12.1359 12.8295L16.1386 8.82677C17.8117 7.15368 17.8277 4.44406 16.192 2.74763Z" fill="url(#paint0_linear_1_54)"/>
<defs>
<linearGradient id="paint0_linear_1_54" x1="17.4062" y1="9.39569" x2="1.40625" y2="9.39569" gradientUnits="userSpaceOnUse">
<stop stop-color="#00A0AF"/>
<stop offset="1" stop-color="#00555D"/>
</linearGradient>
</defs>
</svg>
