<svg width="8" height="10" viewBox="0 0 8 10" fill="none" xmlns="http://www.w3.org/2000/svg">
<path d="M7.62597 7.79411V9.5163C7.62597 9.60072 7.59642 9.67248 7.53733 9.73158C7.47823 9.79067 7.40648 9.82022 7.32205 9.82022H1.00313C0.910271 9.82022 0.834292 9.79067 0.775198 9.73158C0.724545 9.67248 0.699219 9.60072 0.699219 9.5163V0.854698C0.699219 0.770276 0.724545 0.698518 0.775198 0.639424C0.834292 0.580329 0.910271 0.550781 1.00313 0.550781H2.90261C2.98703 0.550781 3.05879 0.580329 3.11788 0.639424C3.17698 0.698518 3.20653 0.770276 3.20653 0.854698V7.18628C3.20653 7.2707 3.23185 7.34246 3.2825 7.40155C3.3416 7.46065 3.41758 7.4902 3.51044 7.4902H7.32205C7.40648 7.4902 7.47823 7.51974 7.53733 7.57884C7.59642 7.63793 7.62597 7.70969 7.62597 7.79411Z" fill="white" fill-opacity="0.5"/>
</svg>
