<svg width="16" height="17" viewBox="0 0 16 17" fill="none" xmlns="http://www.w3.org/2000/svg">
<path d="M10.6587 7.84C10.764 9.02667 9.832 10.0227 8.66667 10.0227H6.01467C5.554 10.0227 5.22733 9.57867 5.36467 9.13933C5.69933 8.06667 6.65533 6.36267 8.19133 6.06733C9.36133 5.842 10.5533 6.65333 10.6587 7.84ZM10.6813 5.39867C11.1747 5.77067 11.534 6.27133 11.7553 6.826L15.528 2.76933C16.1567 2.14133 16.158 1.12267 15.53 0.494C14.9027 -0.134 13.8853 -0.134667 13.2573 0.492667C13.236 0.514 9.542 4.83467 9.542 4.83467C9.948 4.95133 10.3367 5.13867 10.6813 5.39867ZM11.126 10.2733C10.4967 10.9613 9.6 11.3567 8.66733 11.3567H6.01533C5.37667 11.3567 4.77 11.05 4.392 10.5367C4.014 10.0233 3.902 9.35267 4.092 8.74333C4.578 7.18867 5.83933 5.25733 7.802 4.8L10.7273 1.35733H3.33333C1.49533 1.356 0 2.85133 0 4.68933V10.0227C0 11.8607 1.49533 13.356 3.33333 13.356H7.33333V14.6893H5.33333C4.96533 14.6893 4.66667 14.9873 4.66667 15.356C4.66667 15.7247 4.96533 16.0227 5.33333 16.0227H10.6667C11.0353 16.0227 11.3333 15.7247 11.3333 15.356C11.3333 14.9873 11.0353 14.6893 10.6667 14.6893H8.66667V13.356H12.6667C14.5047 13.356 16 11.8607 16 10.0227V4.21267L11.9393 8.57667C11.8327 9.20333 11.5607 9.79667 11.126 10.272V10.2733Z" fill="url(#paint0_linear_1_51)"/>
<defs>
<linearGradient id="paint0_linear_1_51" x1="0" y1="8.02262" x2="16.0002" y2="8.02262" gradientUnits="userSpaceOnUse">
<stop stop-color="#00A0AF"/>
<stop offset="1" stop-color="#00555D"/>
</linearGradient>
</defs>
</svg>
