<svg width="16" height="17" viewBox="0 0 16 17" fill="none" xmlns="http://www.w3.org/2000/svg">
<path d="M10 14.1361H3.33333C2.4496 14.135 1.60237 13.7835 0.97748 13.1586C0.352588 12.5337 0.00105857 11.6865 0 10.8027L0 4.13607C0.00105857 3.25234 0.352588 2.40511 0.97748 1.78021C1.60237 1.15532 2.4496 0.803793 3.33333 0.802734L10 0.802734C10.8837 0.803793 11.731 1.15532 12.3559 1.78021C12.9807 2.40511 13.3323 3.25234 13.3333 4.13607V10.8027C13.3323 11.6865 12.9807 12.5337 12.3559 13.1586C11.731 13.7835 10.8837 14.135 10 14.1361ZM16 13.4694V4.80273C16 4.62592 15.9298 4.45635 15.8047 4.33133C15.6797 4.20631 15.5101 4.13607 15.3333 4.13607C15.1565 4.13607 14.987 4.20631 14.8619 4.33133C14.7369 4.45635 14.6667 4.62592 14.6667 4.80273V13.4694C14.6667 13.9998 14.456 14.5085 14.0809 14.8836C13.7058 15.2587 13.1971 15.4694 12.6667 15.4694H4C3.82319 15.4694 3.65362 15.5396 3.5286 15.6647C3.40357 15.7897 3.33333 15.9593 3.33333 16.1361C3.33333 16.3129 3.40357 16.4824 3.5286 16.6075C3.65362 16.7325 3.82319 16.8027 4 16.8027H12.6667C13.5504 16.8017 14.3976 16.4501 15.0225 15.8253C15.6474 15.2004 15.9989 14.3531 16 13.4694Z" fill="url(#paint0_linear_1_35)"/>
<defs>
<linearGradient id="paint0_linear_1_35" x1="0" y1="8.80273" x2="16" y2="8.80273" gradientUnits="userSpaceOnUse">
<stop stop-color="#00A0AF"/>
<stop offset="1" stop-color="#00555D"/>
</linearGradient>
</defs>
</svg>
