<svg width="15" height="16" viewBox="0 0 15 16" fill="none" xmlns="http://www.w3.org/2000/svg">
<path d="M12.6667 0H2C1.46957 0 0.960859 0.210714 0.585786 0.585786C0.210714 0.960859 0 1.46957 0 2V16H14.6667V2C14.6667 1.46957 14.456 0.960859 14.0809 0.585786C13.7058 0.210714 13.1971 0 12.6667 0ZM4 12.6667H2.66667V11.3333H4V12.6667ZM4 10H2.66667V8.66667H4V10ZM6.66667 12.6667H5.33333V11.3333H6.66667V12.6667ZM6.66667 10H5.33333V8.66667H6.66667V10ZM12 12.6667H8V11.3333H12V12.6667ZM8 10V8.66667H9.33333V10H8ZM12 10H10.6667V8.66667H12V10ZM12 6.66667H2.66667V2.66667H12V6.66667ZM10.6667 5.33333H4V4H10.6667V5.33333Z" fill="url(#paint0_linear_1_58)"/>
<defs>
<linearGradient id="paint0_linear_1_58" x1="0" y1="8" x2="14.6667" y2="8" gradientUnits="userSpaceOnUse">
<stop stop-color="#00A0AF"/>
<stop offset="1" stop-color="#00555D"/>
</linearGradient>
</defs>
</svg>
