<svg width="16" height="20" viewBox="0 0 16 20" fill="none" xmlns="http://www.w3.org/2000/svg">
<path d="M12 0.190308H4C1.7944 0.190308 0 1.98471 0 4.19031V15.3903C0 17.5959 1.7944 19.3903 4 19.3903H12C14.2056 19.3903 16 17.5959 16 15.3903V4.19031C16 1.98471 14.2056 0.190308 12 0.190308ZM6.4 15.3903C6.4 15.8319 6.0416 16.1903 5.6 16.1903H4C3.5584 16.1903 3.2 15.8319 3.2 15.3903V13.7903C3.2 13.3487 3.5584 12.9903 4 12.9903H5.6C6.0416 12.9903 6.4 13.3487 6.4 13.7903V15.3903ZM6.4 10.5903C6.4 11.0319 6.0416 11.3903 5.6 11.3903H4C3.5584 11.3903 3.2 11.0319 3.2 10.5903V8.99031C3.2 8.54871 3.5584 8.19031 4 8.19031H5.6C6.0416 8.19031 6.4 8.54871 6.4 8.99031V10.5903ZM6.4 5.79031C6.4 6.23191 6.0416 6.59031 5.6 6.59031H4C3.5584 6.59031 3.2 6.23191 3.2 5.79031V4.19031C3.2 3.74871 3.5584 3.39031 4 3.39031H5.6C6.0416 3.39031 6.4 3.74871 6.4 4.19031V5.79031ZM12 15.3903H8.8C7.7536 15.3855 7.7544 13.7951 8.8 13.7903H12C13.0464 13.7951 13.0456 15.3855 12 15.3903ZM12 10.5903H8.8C7.7536 10.5855 7.7544 8.99511 8.8 8.99031H12C13.0464 8.99511 13.0456 10.5855 12 10.5903ZM12 5.79031H8.8C7.7536 5.78551 7.7544 4.19511 8.8 4.19031H12C13.0464 4.19511 13.0456 5.78551 12 5.79031Z" fill="url(#paint0_linear_1_32)"/>
<defs>
<linearGradient id="paint0_linear_1_32" x1="0" y1="9.79031" x2="16" y2="9.79031" gradientUnits="userSpaceOnUse">
<stop stop-color="#00A0AF"/>
<stop offset="1" stop-color="#00555D"/>
</linearGradient>
</defs>
</svg>
