<svg width="15" height="10" viewBox="0 0 15 10" fill="none" xmlns="http://www.w3.org/2000/svg">
<path d="M0.142597 0.918014C0.100387 0.816708 0.0961657 0.732287 0.129934 0.66475C0.172145 0.588771 0.239682 0.550781 0.332545 0.550781H2.39664C2.48106 0.550781 2.56126 0.580329 2.63724 0.639424C2.71322 0.690076 2.76387 0.753392 2.7892 0.829371L4.2328 5.04621C4.25813 5.13063 4.30034 5.17284 4.35943 5.17284C4.42697 5.17284 4.4734 5.13063 4.49873 5.04621L5.89167 0.842034C5.917 0.757613 5.96765 0.690076 6.04363 0.639424C6.11961 0.580329 6.20403 0.550781 6.2969 0.550781H7.9811C8.07396 0.550781 8.15838 0.580329 8.23436 0.639424C8.31034 0.690076 8.36099 0.757613 8.38632 0.842034L9.77927 5.07153C9.80459 5.15595 9.8468 5.19816 9.9059 5.19816C9.97344 5.19816 10.0241 5.15595 10.0579 5.07153L11.5141 0.829371C11.5479 0.753392 11.6028 0.690076 11.6787 0.639424C11.7547 0.580329 11.8391 0.550781 11.932 0.550781H13.9834C14.0763 0.550781 14.1396 0.588771 14.1734 0.66475C14.2072 0.732287 14.2114 0.804045 14.186 0.880024L11.1216 9.52897C11.0878 9.61339 11.0329 9.68515 10.9569 9.74424C10.881 9.79489 10.7965 9.82022 10.7037 9.82022H9.07013C8.97727 9.82022 8.89285 9.79489 8.81687 9.74424C8.74089 9.68515 8.69024 9.61339 8.66491 9.52897L7.27196 5.31213C7.24663 5.22771 7.2002 5.1855 7.13267 5.1855C7.07357 5.1855 7.03136 5.22771 7.00603 5.31213L5.61309 9.52897C5.58776 9.61339 5.53711 9.68515 5.46113 9.74424C5.38515 9.79489 5.30073 9.82022 5.20786 9.82022H3.57432C3.48145 9.82022 3.39703 9.79067 3.32105 9.73158C3.24507 9.66404 3.19864 9.5965 3.18176 9.52897L0.142597 0.918014Z" fill="white"/>
</svg>
